<?xml version="1.0" encoding="utf-8"?>
<!-- Generator: Adobe Illustrator 27.0.1, SVG Export Plug-In . SVG Version: 6.00 Build 0)  -->
<svg version="1.1" id="Ebene_1" xmlns="http://www.w3.org/2000/svg" xmlns:xlink="http://www.w3.org/1999/xlink" x="0px" y="0px"
	 viewBox="0 0 414.3 120.5" style="enable-background:new 0 0 414.3 120.5;" xml:space="preserve">
<style type="text/css">
	.st0{opacity:0.8;}
	.st1{fill:#62838F;}
	
		.st2{opacity:0.37;fill:none;stroke:#FFFFFF;stroke-width:13;stroke-linecap:round;stroke-miterlimit:10;enable-background:new    ;}
	.st3{fill:#FFFFFF;}
	.st4{opacity:0.42;}
</style>
<g class="st0">
	<path class="st1" d="M370.8,120.7H44C20,120.7,0.3,101,0.3,77V43.9C0.3,19.8,20,0.2,44,0.2h326.8c24.1,0,43.8,19.7,43.8,43.8V77
		C414.6,101,394.9,120.7,370.8,120.7z"/>
</g>
<path class="st2" d="M22.1,47.7c0,0-1.3-26.3,26.3-26.3"/>
<line class="st2" x1="74.8" y1="21.5" x2="80.8" y2="21.5"/>
<g>
	<path class="st3" d="M122.4,77.7h-19.7l-2.1,6.1c-0.7,1.9-2.4,3.2-4.5,3.2h-3.3c-3.3,0-5.6-3.3-4.4-6.3l15.7-43.2
		c0.7-1.9,2.5-3.1,4.4-3.1h8.2c2,0,3.8,1.2,4.4,3.1l15.6,43.2c1.1,3.1-1.2,6.3-4.4,6.3h-3.5c-2,0-3.8-1.3-4.5-3.2L122.4,77.7z
		 M119.1,67.8l-6.5-19.3l-6.5,19.3H119.1z"/>
	<path class="st3" d="M182.4,51c-1.4,0-2.7-0.6-3.6-1.7c-0.8-1-1.8-1.8-3-2.4c-1.8-0.9-3.9-1.4-6.3-1.4c-4.2,0-7.5,1.4-10,4.1
		s-3.8,6.4-3.8,10.9c0,4.8,1.3,8.7,3.9,11.4c2.6,2.7,6.2,4.1,10.9,4.1c3.1,0,5.8-0.8,8-2.4c2.2-1.6,3.8-3.9,4.8-6.9h-11.6
		c-2.6,0-4.7-2.1-4.7-4.7l0,0c0-2.6,2.1-4.7,4.7-4.7h18.5c2.6,0,4.7,2.1,4.7,4.7v7.2c-0.9,3.2-2.6,6.2-4.8,8.9s-5.2,5-8.7,6.7
		s-7.5,2.6-11.9,2.6c-5.2,0-9.9-1.1-13.9-3.4c-4.1-2.3-7.3-5.4-9.5-9.5c-2.3-4.1-3.4-8.7-3.4-13.9s1.1-9.8,3.4-13.9
		c2.3-4.1,5.4-7.3,9.5-9.5c4.1-2.3,8.7-3.4,13.9-3.4c6.3,0,11.6,1.5,15.9,4.6c2.1,1.5,3.8,3.2,5.2,5.2c2.2,3.2,0,7.5-3.8,7.5
		L182.4,51L182.4,51z"/>
	<path class="st3" d="M234.9,77.7h-19.7l-2.1,6.1c-0.6,1.9-2.4,3.2-4.5,3.2h-3.3c-3.3,0-5.6-3.3-4.4-6.3l15.6-43.2
		c0.7-1.9,2.5-3.1,4.4-3.1h8.2c2,0,3.8,1.2,4.4,3.1l15.6,43.2c1.1,3.1-1.2,6.3-4.4,6.3h-3.5c-2,0-3.8-1.3-4.5-3.2L234.9,77.7z
		 M231.6,67.8l-6.5-19.3l-6.5,19.3H231.6z"/>
	<path class="st3" d="M270.3,39v43.2c0,2.6-2.1,4.7-4.7,4.7h-3.4c-2.6,0-4.7-2.1-4.7-4.7V39c0-2.6,2.1-4.7,4.7-4.7h3.4
		C268.2,34.3,270.3,36.4,270.3,39z"/>
	<path class="st3" d="M322,87h-5.6c-1.6,0-3.1-0.8-4-2.1l-20.1-30.4v27.8c0,2.6-2.1,4.7-4.7,4.7h-3.4c-2.6,0-4.7-2.1-4.7-4.7V39
		c0-2.6,2.1-4.7,4.7-4.7h5.6c1.6,0,3.1,0.8,4,2.1L313.9,67V39c0-2.6,2.1-4.7,4.7-4.7h3.4c2.6,0,4.7,2.1,4.7,4.7v43.2
		C326.7,84.9,324.6,87,322,87z"/>
</g>
<g class="st4">
	<g>
		<path class="st1" d="M370.8,9.4c19.2,0,34.8,15.6,34.8,34.8v33.1c0,19.2-15.6,34.8-34.8,34.8H44c-19.2,0-34.8-15.6-34.8-34.8V44.1
			C9.3,25,24.9,9.4,44,9.4L370.8,9.4 M370.8,0.4H44C20,0.4,0.3,20.1,0.3,44.1v33.1c0,24.1,19.7,43.8,43.8,43.8h326.8
			c24.1,0,43.8-19.7,43.8-43.8V44.1C414.6,20.1,394.9,0.4,370.8,0.4L370.8,0.4z"/>
	</g>
</g>
</svg>
