<?xml version="1.0" encoding="utf-8"?>
<!-- Generator: Adobe Illustrator 27.0.1, SVG Export Plug-In . SVG Version: 6.00 Build 0)  -->
<svg version="1.1" id="Ebene_1" xmlns="http://www.w3.org/2000/svg" xmlns:xlink="http://www.w3.org/1999/xlink" x="0px" y="0px"
	 viewBox="0 0 414.3 120.5" style="enable-background:new 0 0 414.3 120.5;" xml:space="preserve">
<style type="text/css">
	.st0{opacity:0.8;}
	.st1{fill:#62838F;}
	
		.st2{opacity:0.37;fill:none;stroke:#FFFFFF;stroke-width:13;stroke-linecap:round;stroke-miterlimit:10;enable-background:new    ;}
	.st3{fill:#FFFFFF;}
	.st4{opacity:0.42;}
</style>
<g class="st0">
	<path class="st1" d="M370.8,120.8H44c-24.1,0-43.8-19.7-43.8-43.8V44C0.3,20,20,0.3,44,0.3h326.8c24.1,0,43.8,19.7,43.8,43.8v33.1
		C414.6,101.2,394.9,120.8,370.8,120.8z"/>
</g>
<path class="st2" d="M22.1,47.8c0,0-1.3-26.3,26.3-26.3"/>
<line class="st2" x1="74.8" y1="21.6" x2="80.8" y2="21.6"/>
<g>
	<path class="st3" d="M161.8,37.8v45.3c0,2.2-1.8,3.9-3.9,3.9h-5.1c-2.2,0-3.9-1.8-3.9-3.9v-28l-10.9,29.3c-0.6,1.5-2,2.5-3.7,2.5
		h-5c-1.6,0-3.1-1-3.7-2.5l-11-29.4v28c0,2.2-1.8,3.9-3.9,3.9h-5.1c-2.2,0-3.9-1.8-3.9-3.9V37.8c0-2.2,1.8-3.9,3.9-3.9h8.8
		c1.6,0,3,1,3.6,2.4l13.9,34.4l13.8-34.3c0.6-1.5,2-2.5,3.6-2.5h8.7C160,34,161.8,35.7,161.8,37.8z"/>
	<path class="st3" d="M184,44.3v10.8h13.4c2.2,0,3.9,1.8,3.9,3.9v2.2c0,2.2-1.8,3.9-3.9,3.9H184v11.7h15.7c2.2,0,3.9,1.8,3.9,3.9
		v2.6c0,2.2-1.8,3.9-3.9,3.9H175c-2.2,0-3.9-1.8-3.9-3.9V37.8c0-2.2,1.8-3.9,3.9-3.9h24.8c2.2,0,3.9,1.8,3.9,3.9v2.6
		c0,2.2-1.8,3.9-3.9,3.9H184z"/>
	<path class="st3" d="M255.7,87.1h-6.9c-1.3,0-2.5-0.7-3.3-1.8l-20.5-31v28.9c0,2.2-1.8,3.9-3.9,3.9H216c-2.2,0-3.9-1.8-3.9-3.9
		V37.8c0-2.2,1.8-3.9,3.9-3.9h6.9c1.3,0,2.5,0.7,3.3,1.8l20.5,31.2v-29c0-2.2,1.8-3.9,3.9-3.9h5.1c2.2,0,3.9,1.8,3.9,3.9v45.3
		C259.6,85.3,257.9,87.1,255.7,87.1z"/>
	<path class="st3" d="M277.8,34c2.2,0,3.9,1.8,3.9,3.9v27.9c0,3.2,0.8,5.6,2.4,7.3c1.6,1.7,3.9,2.6,6.9,2.6c3,0,5.4-0.9,7-2.6
		c1.6-1.7,2.4-4.2,2.4-7.3V37.8c0-2.2,1.8-3.9,3.9-3.9h5.1c2.2,0,3.9,1.8,3.9,3.9v27.8c0,4.7-1,8.8-3,12s-4.7,5.8-8.1,7.4
		s-7.2,2.5-11.4,2.5s-7.9-0.8-11.2-2.5c-3.3-1.6-5.9-4.1-7.8-7.4c-1.9-3.3-2.9-7.3-2.9-12.1V37.8c0-2.2,1.8-3.9,3.9-3.9
		C272.6,33.9,277.8,33.9,277.8,34z"/>
</g>
<g class="st4">
	<g>
		<path class="st1" d="M370.8,9.2c19.2,0,34.8,15.6,34.8,34.8v33.1c0,19.2-15.6,34.8-34.8,34.8H44c-19.2,0-34.8-15.6-34.8-34.8V44
			C9.3,24.8,24.9,9.2,44,9.2L370.8,9.2 M370.8,0.2H44C20,0.2,0.3,19.9,0.3,44v33.1c0,24.1,19.7,43.8,43.8,43.8h326.8
			c24.1,0,43.8-19.7,43.8-43.8V44C414.6,19.9,394.9,0.2,370.8,0.2L370.8,0.2z"/>
	</g>
</g>
</svg>
