<?xml version="1.0" encoding="utf-8"?>
<!-- Generator: Adobe Illustrator 27.0.1, SVG Export Plug-In . SVG Version: 6.00 Build 0)  -->
<svg version="1.1" id="Ebene_1" xmlns="http://www.w3.org/2000/svg" xmlns:xlink="http://www.w3.org/1999/xlink" x="0px" y="0px"
	 viewBox="0 0 414.3 120.5" style="enable-background:new 0 0 414.3 120.5;" xml:space="preserve">
<style type="text/css">
	.st0{opacity:0.8;}
	.st1{fill:#62838F;}
	
		.st2{opacity:0.37;fill:none;stroke:#FFFFFF;stroke-width:13;stroke-linecap:round;stroke-miterlimit:10;enable-background:new    ;}
	.st3{opacity:0.42;}
	.st4{fill:#FFFFFF;}
</style>
<g class="st0">
	<path class="st1" d="M370.8,120.7H44C20,120.7,0.3,101,0.3,77V43.9C0.3,19.8,20,0.2,44,0.2h326.8c24.1,0,43.8,19.7,43.8,43.8v33
		C414.6,101,394.9,120.7,370.8,120.7z"/>
</g>
<path class="st2" d="M22.1,47.7c0,0-1.3-26.3,26.3-26.3"/>
<line class="st2" x1="74.8" y1="21.5" x2="80.8" y2="21.5"/>
<g class="st3">
	<g>
		<path class="st1" d="M370.8,9.4c19.2,0,34.8,15.6,34.8,34.8v33.1c0,19.2-15.6,34.8-34.8,34.8H44c-19.2,0-34.8-15.6-34.8-34.8V44.1
			C9.3,25,24.9,9.4,44,9.4H370.8 M370.8,0.4H44C20,0.4,0.3,20.1,0.3,44.1v33.1C0.3,101.3,20,121,44.1,121h326.8
			c24.1,0,43.8-19.7,43.8-43.8V44.1C414.6,20.1,394.9,0.4,370.8,0.4L370.8,0.4z"/>
	</g>
</g>
<g>
	<path class="st4" d="M126.7,70.3c0,4.4-1.8,7.9-5.5,10.7c-3.7,2.8-7.7,4.2-12,4.2c-3.8,0-7.5-1.2-11.2-3.6
		c-3.7-2.4-5.8-3.6-6.4-3.6c-1.5,0-2.4,0.6-2.7,1.6c-0.4,1.1-0.7,2.9-1,5.5h-1.1V61.6h1.1c0.3,0.9,0.7,2.4,1.4,4.6
		c0.6,2.1,1.8,4.6,3.6,7.6c1.7,2.9,4,5.4,6.9,7.3c2.8,1.9,6.1,2.9,9.9,2.9c2.2,0,3.9-0.6,5.3-1.7c1.4-1.1,2-2.5,2-4.1
		c0-1.9-0.5-3.4-1.5-4.5c-1-1.1-2.8-2.2-5.5-3.2c-2.6-1-5.4-2.1-8.4-3.3c-2.9-1.2-6.1-2.8-9.4-4.8c-3.3-2-4.9-5.7-4.9-11.2
		c0-4.3,1.7-8,5.2-11c3.5-3,7.5-4.5,12-4.5c2.5,0,4.9,0.6,7.3,1.8l6.9,3.8c1.3,0,2.1-0.5,2.5-1.6c0.4-1.1,0.6-2.4,0.6-4h1.3v17.5
		h-1.2c-0.2-0.7-0.7-2-1.3-3.8c-0.7-1.8-2-3.8-3.9-6.1c-2-2.2-3.9-3.9-5.8-4.8c-1.9-1-4.2-1.5-6.9-1.5c-1.8,0-3.5,0.5-5,1.6
		c-1.5,1.1-2.3,2.4-2.3,4c0,1.7,0.6,3.1,1.7,4.2c1.2,1.1,2.5,2,4,2.7c1.5,0.7,3.6,1.5,6.3,2.5c2.7,1,5.5,2.2,8.3,3.5
		c2.9,1.3,5.2,3.3,7.1,5.9C125.7,63.8,126.7,66.8,126.7,70.3z"/>
	<path class="st4" d="M129.6,36.4h52.1v21.2h-1.1c-1.2-2.7-2.6-5.5-4.3-8.5c-1.6-3-3.4-5.6-5.2-7.9c-1.8-2.2-3.4-3.4-4.8-3.4
		l-2.6-0.1v38.5l0.1,3c0.1,1.4,0.4,2.4,0.9,2.9c0.5,0.6,1.2,0.9,2.1,1c1,0.1,1.8,0.2,2.6,0.2c0.8,0,1.5,0.1,2.1,0.1v1.1h-32.3v-1.1
		l4.4-0.2c1.3-0.1,2.2-0.5,2.7-1c0.5-0.5,0.8-1.5,0.9-3l0.1-3V37.6l-2.6,0.1c-1.4,0-3,1-4.7,3.1c-1.7,2.1-3.4,4.7-5.2,7.9
		c-1.7,3.2-3.2,6.1-4.4,8.7h-1.1V36.4z"/>
	<path class="st4" d="M192.7,69.4l-2,6.9c-0.4,1.6-0.7,2.8-0.7,3.8c0,1,0.3,1.7,0.8,2.1c0.5,0.4,1.2,0.7,1.9,0.8
		c0.8,0.2,1.6,0.3,2.3,0.3c0.7,0,1.5,0.1,2.2,0.1v1.1h-18.7v-1.1l3.9-0.3c1.5-0.2,2.6-0.5,3.3-1.1c0.8-0.5,1.3-1.2,1.7-2.1
		c0.4-0.8,0.8-1.8,1.3-3c0.5-1.1,0.9-2.2,1.2-3.1l12.6-37.7h7.3l13.9,37.7l2,5.1c0.6,1.4,1.2,2.3,1.9,2.9c0.6,0.6,1.5,1,2.7,1.2
		l2.7,0.3v1.1h-31.3v-1.1c0.5,0,1,0,1.4,0c0.4,0,1.2-0.1,2.3-0.3c1.1-0.2,1.9-0.4,2.4-0.7c0.5-0.3,0.7-0.9,0.7-1.8
		c0-1-0.3-2.4-0.9-4.2l-2.4-7H192.7z M204.6,68l-5.8-16.2L193.2,68H204.6z"/>
	<path class="st4" d="M257.2,60.4v15.4l0.1,3c0.1,1.4,0.5,2.4,1.1,3c0.6,0.6,1.5,1,2.9,1.2l3.4,0.3v1.1H233v-1.1h2
		c1-0.1,1.9-0.3,2.8-0.4c0.9-0.1,1.6-0.4,2.1-1c0.5-0.5,0.8-1.5,1-2.9l0.1-3V44.8l-0.1-3c-0.1-1.4-0.5-2.4-1-3
		c-0.5-0.6-1.3-0.9-2.2-1.1s-1.8-0.2-2.5-0.2c-0.7,0-1.4-0.1-2-0.1v-1.1l29.5-0.1c4.1,0,7.4,0.2,10,0.5c2.6,0.4,4.6,1.1,6.2,2.1
		c1.6,1.1,2.9,2.4,3.8,3.9c0.9,1.6,1.4,3.4,1.4,5.4c0,1.5-0.3,3.1-0.8,4.6c-0.6,1.5-1.4,2.9-2.5,4c-1.1,1.1-2.6,2-4.3,2.6
		c-1.7,0.6-4.4,0.9-8.1,0.9v0.5c2.2,0.5,4.1,0.9,5.6,1.4c1.5,0.4,2.9,1.1,4.1,1.9c1.2,0.8,2.3,2.1,3.3,3.7c1,1.7,1.8,3.5,2.4,5.4
		c0.6,2,1.2,3.4,1.7,4.2c0.5,0.8,1.2,1.2,2,1.2c1.1,0,1.9-0.7,2.3-2.2c0.4-1.5,0.6-3.2,0.6-5h1.1c0,2.2-0.1,3.9-0.4,5.1
		c-0.3,1.3-0.9,2.6-2,4c-1.1,1.4-2.6,2.5-4.5,3.4c-2,0.9-4.1,1.3-6.4,1.3c-3.6,0-6.4-1-8.5-3.1c-2.1-2.1-3.5-4.7-4-8.1
		c-0.5-3.3-0.9-6.1-1.2-8.4c-0.5-2.6-1.1-4-1.9-4.5c-0.8-0.4-1.7-0.7-2.6-0.7C259.1,60.5,258.2,60.4,257.2,60.4z M262.5,59.1
		c1.7-0.3,2.9-1.5,3.8-3.6c0.9-2.2,1.3-4.6,1.3-7.2c0-2.2-0.4-4.3-1.3-6.4c-0.9-2.1-1.9-3.3-3.2-3.7c-1.2-0.4-2.3-0.5-3.3-0.6
		c-1,0-1.8-0.1-2.6-0.1v21.8h2.2C260.7,59.3,261.7,59.2,262.5,59.1z"/>
	<path class="st4" d="M292,36.4h52.1v21.2H343c-1.2-2.7-2.6-5.5-4.3-8.5c-1.6-3-3.4-5.6-5.2-7.9c-1.8-2.2-3.4-3.4-4.8-3.4l-2.6-0.1
		v38.5l0.1,3c0.1,1.4,0.4,2.4,0.9,2.9c0.5,0.6,1.2,0.9,2.1,1c1,0.1,1.8,0.2,2.6,0.2c0.8,0,1.5,0.1,2.1,0.1v1.1h-32.3v-1.1l4.4-0.2
		c1.3-0.1,2.2-0.5,2.7-1c0.5-0.5,0.8-1.5,0.9-3l0.1-3V37.6l-2.6,0.1c-1.4,0-3,1-4.7,3.1c-1.7,2.1-3.4,4.7-5.2,7.9
		c-1.7,3.2-3.2,6.1-4.4,8.7H292V36.4z"/>
</g>
</svg>
